<svg xmlns="http://www.w3.org/2000/svg" viewBox="0 0 152 152">
  <!-- 배경 원 -->
  <circle cx="76" cy="76" r="70" fill="#00838f" stroke="#006064" stroke-width="3"/>

  <!-- 기어 아이콘 (제조 상징) -->
  <path d="M76 35 L80 42 L88 42 L92 35 L100 38 L98 46 L104 52 L112 50 L115 58 L108 62 L108 70 L115 74 L112 82 L104 80 L98 86 L100 94 L92 97 L88 90 L80 90 L76 97 L68 94 L70 86 L64 80 L56 82 L53 74 L60 70 L60 62 L53 58 L56 50 L64 52 L70 46 L68 38 Z" fill="#4dd0e1" stroke="#00acc1" stroke-width="1"/>
  <circle cx="76" cy="66" r="12" fill="#00838f"/>

  <!-- AI 뇌 회로 패턴 -->
  <circle cx="76" cy="66" r="6" fill="#e0f7fa"/>
  <line x1="76" y1="60" x2="76" y2="54" stroke="#e0f7fa" stroke-width="2"/>
  <line x1="82" y1="66" x2="88" y2="66" stroke="#e0f7fa" stroke-width="2"/>
  <line x1="70" y1="66" x2="64" y2="66" stroke="#e0f7fa" stroke-width="2"/>

  <!-- 로봇 팔 아이콘 -->
  <path d="M45 95 L55 85 L65 90 L60 100" fill="none" stroke="#b2ebf2" stroke-width="3" stroke-linecap="round" stroke-linejoin="round"/>
  <circle cx="45" cy="98" r="4" fill="#b2ebf2"/>

  <path d="M107 95 L97 85 L87 90 L92 100" fill="none" stroke="#b2ebf2" stroke-width="3" stroke-linecap="round" stroke-linejoin="round"/>
  <circle cx="107" cy="98" r="4" fill="#b2ebf2"/>

  <!-- 스마트 텍스트 -->
  <text x="76" y="125" font-family="Arial, sans-serif" font-size="14" font-weight="bold" fill="white" text-anchor="middle">SMART MFG</text>
</svg>
